<?xml version="1.0" standalone="no"?><!DOCTYPE svg PUBLIC "-//W3C//DTD SVG 20010904//EN"   "http://www.w3.org/TR/2001/REC-SVG-20010904/DTD/svg10.dtd"><svg xmlns="http://www.w3.org/2000/svg" width="440" height="310">   <g id="cvpage1_top" width="440px" height="310px" transform="translate(0,0)">      <line x1="64.148px" y1="262.012px" x2="237.648px" y2="262.012px" fill="none" stroke="#000" />      <line x1="64.648px" y1="262.517px" x2="64.648px" y2="88.512px" fill="none" stroke="#000" />      <line x1="171.648px" y1="193.512px" x2="345.148px" y2="193.512px" fill="none" stroke="#7F7F7F" />      <line x1="171.648px" y1="20.012px" x2="345.148px" y2="20.012px" fill="none" stroke="#000" />      <line x1="345.648px" y1="194.518px" x2="345.648px" y2="20.012px" fill="none" stroke="#000" />      <line x1="171.648px" y1="194.018px" x2="171.648px" y2="19.512px" fill="none" stroke="#7F7F7F" />      <line x1="237.261px" y1="262.517px" x2="345.014px" y2="193.512px" fill="none" stroke="#000" />      <line x1="65.322px" y1="261.517px" x2="171.514px" y2="193.512px" fill="none" stroke="#7F7F7F" />      <line x1="140.158px" y1="255.012px" x2="161.639px" y2="262.012px" fill="none" stroke="#F00" stroke-width="2px" stroke-miterlimit="14.335" />      <line x1="140.158px" y1="269.012px" x2="161.639px" y2="262.012px" fill="none" stroke="#F00" stroke-width="2px" stroke-miterlimit="14.335" />      <line x1="247.658px" y1="186.512px" x2="269.139px" y2="193.512px" fill="none" stroke="#FF3838" stroke-width="2px" stroke-miterlimit="14.335" />      <line x1="247.658px" y1="200.512px" x2="269.139px" y2="193.512px" fill="none" stroke="#FF3838" stroke-width="2px" stroke-miterlimit="14.335" />      <line x1="64.148px" y1="88.512px" x2="237.648px" y2="88.512px" fill="none" stroke="#000" />      <line x1="238.148px" y1="262.517px" x2="238.148px" y2="88.512px" fill="none" stroke="#000" />      <line x1="237.261px" y1="89.017px" x2="345.014px" y2="20.012px" fill="none" stroke="#000" />      <line x1="65.322px" y1="88.017px" x2="171.514px" y2="20.012px" fill="none" stroke="#000" />      <line x1="140.158px" y1="81.512px" x2="161.639px" y2="88.512px" fill="none" stroke="#F00" stroke-width="2px" stroke-miterlimit="14.335" />      <line x1="140.158px" y1="95.512px" x2="161.639px" y2="88.512px" fill="none" stroke="#F00" stroke-width="2px" stroke-miterlimit="14.335" />      <line x1="247.658px" y1="13.012px" x2="269.139px" y2="20.012px" fill="none" stroke="#F00" stroke-width="2px" stroke-miterlimit="14.335" />      <line x1="247.658px" y1="27.012px" x2="269.139px" y2="20.012px" fill="none" stroke="#F00" stroke-width="2px" stroke-miterlimit="14.335" />      <line x1="231.148px" y1="186.287px" x2="238.148px" y2="164.743px" fill="none" stroke="#F00" stroke-width="2px" stroke-miterlimit="14.335" />      <line x1="245.148px" y1="186.287px" x2="238.148px" y2="164.743px" fill="none" stroke="#F00" stroke-width="2px" stroke-miterlimit="14.335" />      <line x1="338.648px" y1="118.068px" x2="345.648px" y2="96.462px" fill="none" stroke="#F00" stroke-width="2px" stroke-miterlimit="14.335" />      <line x1="352.648px" y1="118.068px" x2="345.648px" y2="96.462px" fill="none" stroke="#F00" stroke-width="2px" stroke-miterlimit="14.335" />      <line x1="277.467px" y1="232.287px" x2="297.808px" y2="223.743px" fill="none" stroke="#F00" stroke-width="2px" stroke-miterlimit="14.335" />      <line x1="291.467px" y1="232.287px" x2="297.808px" y2="223.743px" fill="none" stroke="#F00" stroke-width="2px" stroke-miterlimit="14.335" />      <line x1="57.648px" y1="186.287px" x2="64.648px" y2="164.743px" fill="none" stroke="#F00" stroke-width="2px" stroke-miterlimit="14.335" />      <line x1="71.648px" y1="186.287px" x2="64.648px" y2="164.743px" fill="none" stroke="#F00" stroke-width="2px" stroke-miterlimit="14.335" />      <line x1="104.844px" y1="58.225px" x2="124.992px" y2="49.805px" fill="none" stroke="#F00" stroke-width="2px" stroke-miterlimit="14.335" />      <line x1="118.844px" y1="58.225px" x2="124.992px" y2="49.805px" fill="none" stroke="#F00" stroke-width="2px" stroke-miterlimit="14.335" />      <line x1="164.648px" y1="117.568px" x2="171.648px" y2="95.962px" fill="none" stroke="#FF3838" stroke-width="2px" stroke-miterlimit="14.335" />      <line x1="178.648px" y1="117.568px" x2="171.648px" y2="95.962px" fill="none" stroke="#FF3838" stroke-width="2px" stroke-miterlimit="14.335" />      <line x1="277.467px" y1="58.787px" x2="297.808px" y2="50.243px" fill="none" stroke="#F00" stroke-width="2px" stroke-miterlimit="14.335" />      <line x1="291.467px" y1="58.787px" x2="297.808px" y2="50.243px" fill="none" stroke="#F00" stroke-width="2px" stroke-miterlimit="14.335" />      <line x1="104.844px" y1="231.725px" x2="124.992px" y2="223.305px" fill="none" stroke="#FF3838" stroke-width="2px" stroke-miterlimit="14.335" />      <line x1="118.844px" y1="231.725px" x2="124.992px" y2="223.305px" fill="none" stroke="#FF3838" stroke-width="2px" stroke-miterlimit="14.335" />      <line x1="291.648px" y1="141.018px" x2="336.148px" y2="141.018px" fill="none" stroke="#1F00FF" />      <polyline points="338.648,140.768 323.648,146.18 323.648,135.355 338.648,140.768 " fill="#6A55FF" stroke="none" />      <polygon points="338.648,140.768 323.648,146.18 323.648,135.355 338.648,140.768 " fill="none" stroke="#1F00FF" />      <line x1="113.648px" y1="141.018px" x2="158.148px" y2="141.018px" fill="none" stroke="#5138FF" />      <polyline points="160.648,140.768 145.648,146.18 145.648,135.355 160.648,140.768 " fill="#B5AAFF" stroke="none" />      <polygon points="160.648,140.768 145.648,146.18 145.648,135.355 160.648,140.768 " fill="none" stroke="#5138FF" />      <line x1="204.811px" y1="228.355px" x2="204.811px" y2="183.855px" fill="none" stroke="#5138FF" />      <polyline points="204.561,181.355 209.974,196.355 199.148,196.355 204.561,181.355 " fill="#B5AAFF" stroke="none" />      <polygon points="204.561,181.355 209.974,196.355 199.148,196.355 204.561,181.355 " fill="none" stroke="#5138FF" />      <line x1="205.099px" y1="55.094px" x2="205.099px" y2="10.594px" fill="none" stroke="#1F00FF" />      <polyline points="204.849,8.094 210.262,23.094 199.436,23.094 204.849,8.094 " fill="#6A55FF" stroke="none" />      <polygon points="204.849,8.094 210.262,23.094 199.436,23.094 204.849,8.094 " fill="none" stroke="#1F00FF" />      <line x1="258.071px" y1="107.409px" x2="295.076px" y2="82.693px" fill="none" stroke="#5138FF" />      <polyline points="296.888,81.256 290.196,90.639 278.632,88.535 296.888,81.256 " fill="#B5AAFF" stroke="none" />      <polygon points="296.888,81.256 290.196,90.639 278.632,88.535 296.888,81.256 " fill="none" stroke="#5138FF" />      <line x1="150.331px" y1="175.558px" x2="187.337px" y2="150.842px" fill="none" stroke="#1F00FF" />      <polyline points="189.149,149.405 182.457,158.788 170.893,156.684 189.149,149.405 " fill="#6A55FF" stroke="none" />      <polygon points="189.149,149.405 182.457,158.788 170.893,156.684 189.149,149.405 " fill="none" stroke="#1F00FF" />      <g transform="translate(25.148,265.517)" font-size="14px" font-family="Times, serif" style="border: 29px solid #FF9F54; line-height: 58px;">         <text x="0px" y="14px" style="border: 0px solid #000000; line-height: 14px;">            (i, j, k)         </text>      </g>      <g transform="translate(215.148,265.517)" font-size="14px" font-family="Times, serif" style="border: 71592696px solid #000000; line-height: 143185406px;">         <text x="0px" y="14px" style="border: 0px solid #000000; line-height: 14px;">            (i+1, j, k)         </text>      </g>      <g transform="translate(5.648,82.017)" font-size="14px" font-family="Times, serif" style="border: 71592696px solid #000000; line-height: 143185406px;">         <text x="0px" y="14px" style="border: 0px solid #000000; line-height: 14px;">            (i, j, k+1)         </text>      </g>      <g transform="translate(347.648,189.518)" font-size="14px" font-family="Times, serif" style="border: 71592696px solid #000000; line-height: 143185406px;">         <text x="0px" y="14px" style="border: 0px solid #000000; line-height: 14px;">            (i+1, j+1, k)         </text>      </g>      <g transform="translate(347.648,9.518)" font-size="14px" font-family="Times, serif" style="border: 71592696px solid #000000; line-height: 143185406px;">         <text x="0px" y="14px" style="border: 0px solid #000000; line-height: 14px;">            (i+1, j+1, k+1)         </text>      </g>      <g transform="translate(29.648,158.018)" font-size="24px" fill="#FF0000" font-family="Times, serif" style="border: 71592696px solid #000000; line-height: 143185406px;">         <text x="0px" y="24px" font-style="oblique" style="border: 0px solid #000000; line-height: 30px;">            E<tspan baseline-shift="sub" style="border: -1073766128px solid #A51248; line-height: 2147435070px;">z</tspan>         </text>      </g>      <g transform="translate(133.148,273.017)" font-size="24px" fill="#FF0000" font-family="Times, serif" style="border: 71592696px solid #000000; line-height: 143185422px;">         <text x="0px" y="24px" font-style="oblique" style="border: 0px solid #000000; line-height: 30px;">            E<tspan baseline-shift="sub" style="border: -1073766128px solid #A51248; line-height: 2147435070px;">x</tspan>         </text>      </g>      <g transform="translate(299.648,221.518)" font-size="24px" fill="#FF0000" font-family="Times, serif" style="border: 71592696px solid #000000; line-height: 143185422px;">         <text x="0px" y="24px" font-style="oblique" style="border: 0px solid #000000; line-height: 30px;">            E<tspan baseline-shift="sub" style="border: -1073766128px solid #A51248; line-height: 2147435070px;">y</tspan>         </text>      </g>      <g transform="translate(129.148,166.518)" font-size="24px" fill="#1F00FF" font-family="Times, serif" style="border: 71592696px solid #000000; line-height: 143185422px;">         <text x="0px" y="24px" font-style="oblique" style="border: 0px solid #000000; line-height: 30px;">            H<tspan baseline-shift="sub" style="border: -1073766128px solid #A51248; line-height: 2147435070px;">y</tspan>         </text>      </g>      <g transform="translate(293.148,144.518)" font-size="24px" fill="#1F00FF" font-family="Times, serif" style="border: 71592696px solid #000000; line-height: 143185422px;">         <text x="0px" y="24px" font-style="oblique" style="border: 0px solid #000000; line-height: 30px;">            H<tspan baseline-shift="sub" style="border: -1073766128px solid #A51248; line-height: 2147435070px;">x</tspan>         </text>      </g>      <g transform="translate(208.648,40.517)" font-size="24px" fill="#1F00FF" font-family="Times, serif" style="border: 71592696px solid #000000; line-height: 143185422px;">         <text x="0px" y="24px" font-style="oblique" style="border: 0px solid #000000; line-height: 30px;">            H<tspan baseline-shift="sub" style="border: -1073766128px solid #A51248; line-height: 2147435070px;">z</tspan>         </text>      </g>   </g></svg>